<?xml version="1.0" encoding="UTF-8"?>
<svg width="32" height="32" viewBox="0 0 32 32" fill="none" xmlns="http://www.w3.org/2000/svg">
  <rect width="32" height="32" rx="8" fill="#1C2E4A"/>
  <path d="M21.5 21.5c-1.4 1.2-3.1 1.8-5 1.8-2.2 0-4-0.7-5.5-2.2-1.5-1.5-2.2-3.3-2.2-5.5 0-2.2 0.7-4 2.2-5.5 1.5-1.5 3.3-2.2 5.5-2.2 1.9 0 3.6 0.6 5 1.8v2.8c-1.4-1.6-3.1-2.4-5-2.4-1.6 0-3 0.6-4.1 1.7-1.1 1.1-1.7 2.5-1.7 4.1 0 1.6 0.6 3 1.7 4.1 1.1 1.1 2.5 1.7 4.1 1.7 1.9 0 3.6-0.8 5-2.4v2.2z" fill="#D4AF37"/>
</svg> 